<svg id="Layer_1" data-name="Layer 1" xmlns="http://www.w3.org/2000/svg" viewBox="0 0 750 340"><defs><style>.cls-1,.cls-2{fill:#fff;}.cls-1{opacity:0;}</style></defs><title>fivelogo-hor-white-crop</title><circle class="cls-1" cx="170" cy="170" r="170" transform="translate(-70.42 170) rotate(-45)"/><rect class="cls-2" x="481.84" y="130" width="10" height="80"/><polygon class="cls-2" points="381.84 130 381.84 210 391.84 210 391.84 175 431.84 175 431.84 165 391.84 165 391.84 140 441.84 140 441.84 130 381.84 130"/><polygon class="cls-2" points="711.84 140 711.84 130 651.84 130 651.84 210 711.84 210 711.84 200 661.84 200 661.84 175 701.84 175 701.84 165 661.84 165 661.84 140 711.84 140"/><polygon class="cls-2" points="571.84 187.64 543.02 130 531.84 130 571.84 210 611.84 130 600.66 130 571.84 187.64"/><g id="_1_0_Layer0_0_FILL" data-name=" 1 0 Layer0 0 FILL"><path class="cls-2" d="M46,49.52,0,103l36.63,60.34,68.64-16.2,5.87-70.28Z"/></g><g id="_2_0_Layer0_0_FILL" data-name=" 2 0 Layer0 0 FILL"><path class="cls-2" d="M147.14,136.94l68.47-17.08,4.87-70.4L155,23.06l-45.36,54.1Z"/></g><g id="_3_0_Layer0_0_FILL" data-name=" 3 0 Layer0 0 FILL"><path class="cls-2" d="M209.49,231.48l67.85-19.19,2.79-70.46-66.22-24.42L170.27,172.8Z"/></g><g id="_4_0_Layer0_0_FILL" data-name=" 4 0 Layer0 0 FILL"><path class="cls-2" d="M148.92,320.24l66.43-23.62-1.86-70.47-67.67-20L105.92,264.3Z"/></g><g id="_5_0_Layer0_0_FILL" data-name=" 5 0 Layer0 0 FILL"><path class="cls-2" d="M116.83,266.58,107,196.76,37.53,184.47l-33.1,62.3,49,50.72Z"/></g></svg>