<?xml version="1.0" encoding="utf-8"?>
<!-- Generator: Adobe Illustrator 18.0.0, SVG Export Plug-In . SVG Version: 6.00 Build 0)  -->
<!DOCTYPE svg PUBLIC "-//W3C//DTD SVG 1.1//EN" "http://www.w3.org/Graphics/SVG/1.1/DTD/svg11.dtd">
<svg version="1.1" id="Layer_1" xmlns="http://www.w3.org/2000/svg" xmlns:xlink="http://www.w3.org/1999/xlink" x="0px" y="0px"
	 viewBox="0 0 279.5 429.3" enable-background="new 0 0 279.5 429.3" xml:space="preserve">
<g>
	<path fill="#AA261A" d="M112.2,0.5c5.9-1.2,12.9-0.7,17.6,3.5C135.8,9,141,16,141.5,24c0.6,5-2.9,9.4-6.9,11.9
		c-6.5,4-13.8,6.6-20,11c-6.5,4-11.2,10.3-15.8,16.2c-6.1,9.2-10.9,19.7-11.7,30.9c-2,17.1,2.1,34.2,7.5,50.3
		c8.7,22.5,22.9,42.2,32.8,64.2c6.5,12.7,11.5,26.1,16.5,39.4c3.1,9,5.6,18.3,7.6,27.6c4.6,18.1,5.6,37.3,1,55.5
		c-3.3,9.5-6.9,18.9-10.8,28.1c-9.4,20.8-23.4,39.4-40.5,54.4c-5.8,5.1-12.4,9.1-19.2,12.8c-4.9,2.8-10.7,3.1-16.2,3
		c-9.2-0.9-16.1-8.5-19.6-16.6c-3.2-8.4-0.3-18.2,6.6-23.8c10.6-8.6,22.3-16.3,31.2-26.8c6.8-6.3,10.7-14.8,15.5-22.5
		c5.6-9.3,8.9-19.8,10.7-30.5c1.9-8.6,1.3-17.4,1.3-26.1c-0.8-9.9-3.3-19.7-6.3-29.2c-5.6-19.9-13-39.3-22.2-57.9
		c-4.8-9.8-10.4-19.1-14.9-29c-4.8-10.7-10.2-21.3-13.4-32.6c-2.5-9.3-6.1-18.5-6.4-28.2c-0.1-6.4,0-12.7-0.1-19.1
		c-0.1-9.5,2.4-18.7,5-27.7c3.1-11.7,10.1-22,17.8-31.2c4.8-5.2,9.2-10.8,14.9-15.1C93.4,6.9,102.7,2.9,112.2,0.5z"/>
	<path fill="#AA261A" d="M10.2,119.6c10.3-2.1,21.5,4.2,24.8,14.2c2.3,7.9,4.4,16,4.8,24.3c2.1,27.1,3,54.3,3.7,81.5
		c0.8,13.8-0.2,27.7,0.7,41.5c0.4,7.7-0.6,15.3-0.4,23c0.1,7.7-1.7,15.4-4.5,22.5c-3.3,5.7-8,11.4-14.6,13.1
		c-4.3,1.1-9.4,1.6-13.1-1.3c-4.6-3.6-7.6-9.4-7.2-15.3c-0.8-18-0.3-36-0.4-54.1c-0.2-6.6,0.9-13.3,0.3-19.9
		c-0.6-7.4,0-14.8-0.5-22.1c-1.3-31.3-4.2-62.6-3.5-94C0.4,127.1,4.2,120.9,10.2,119.6z"/>
	<path fill="#AA261A" d="M127.9,123.2c19.9-2.1,39.8-3,59.8-2.6c9,0.6,18.1,1.5,26.7,4.5c9.9,3.5,20.2,7.8,27.2,16
		c8.3,9.2,15.2,20,17.5,32.3c2.4,13.4,1,27.5-3.9,40.2c-4.7,11.3-15.3,18.8-25.9,24.1c-3.6,2.1-7.9,3.7-10.3,7.3
		c6.8,8.7,15.2,15.9,22.5,24.2c10.8,10.6,21.2,21.6,31.3,32.7c4.2,4.6,6.8,10.8,6.5,17c-0.9,6.1-3.6,12.3-8.9,15.9
		c-4.9,3.9-12.5,5.1-17.7,1.2c-5.6-4-10.3-9-15.1-13.8c-27.3-27.3-54.9-54.5-81.3-82.7c-5.6-5.2-7.5-13.4-5.8-20.7
		c1.8-5.4,7.1-9.4,12.8-10c12.6-1.7,25.6-1.5,37.8-5.3c9.3-3.4,18.9-8,24.6-16.4c3.4-4.9,4.2-12.3-0.2-16.9
		c-4.6-5-11.5-6.9-18.1-7.6c-14.6-1.8-29.2,0.4-43.8,1.4c-10.3,0.9-20.7,3-31.1,2.1c-4.1-0.3-8-2.3-10.6-5.4
		c-5-5.8-6.7-13.5-8.1-20.8c-0.7-3.9-0.8-8.4,1.9-11.6C119,124.8,123.6,123.6,127.9,123.2z"/>
</g>
</svg>
